<?xml version="1.0" encoding="utf-8"?>
<!-- Generator: Adobe Illustrator 19.2.1, SVG Export Plug-In . SVG Version: 6.00 Build 0)  -->
<svg version="1.1" id="Capa_1" xmlns="http://www.w3.org/2000/svg" xmlns:xlink="http://www.w3.org/1999/xlink" x="0px" y="0px"
	 viewBox="0 0 295 295" style="enable-background:new 0 0 295 295;" xml:space="preserve">
<style type="text/css">
	.st0{fill:#FFFFFF;}
</style>
<g>
	<g>
		<path class="st0" d="M103.8,222.3c-1,0-2.1-0.3-3-0.8c-1.9-1.1-3-3-3-5.2V80.6c0-2.1,1.1-4.1,3-5.2c1.9-1.1,4.1-1.1,6,0
			l117.5,67.9c1.9,1.1,3,3,3,5.2s-1.1,4.1-3,5.2l-117.5,67.9C105.8,222.1,104.8,222.3,103.8,222.3z M109.8,91v115l99.6-57.5
			L109.8,91z"/>
	</g>
	<g>
		<path class="st0" d="M148,294.5c-39,0-75.7-15.2-103.2-42.8C17.2,224.2,2,187.5,2,148.5S17.2,72.8,44.8,45.3
			C72.3,17.7,109,2.5,148,2.5c39,0,75.7,15.2,103.2,42.8S294,109.5,294,148.5s-15.2,75.7-42.8,103.2
			C223.7,279.3,187,294.5,148,294.5z M148,14.5c-35.8,0-69.5,13.9-94.8,39.3C27.9,79,14,112.7,14,148.5s13.9,69.5,39.3,94.8
			c25.3,25.3,59,39.3,94.8,39.3c35.8,0,69.5-13.9,94.8-39.3s39.3-59,39.3-94.8S268.1,79,242.8,53.7S183.8,14.5,148,14.5z"/>
	</g>
</g>
</svg>
